<?xml version="1.0" encoding="UTF-8" standalone="no"?>
<svg
   xmlns:dc="http://purl.org/dc/elements/1.1/"
   xmlns:cc="http://creativecommons.org/ns#"
   xmlns:rdf="http://www.w3.org/1999/02/22-rdf-syntax-ns#"
   xmlns:svg="http://www.w3.org/2000/svg"
   xmlns="http://www.w3.org/2000/svg"
   xmlns:sodipodi="http://sodipodi.sourceforge.net/DTD/sodipodi-0.dtd"
   xmlns:inkscape="http://www.inkscape.org/namespaces/inkscape"
   width="20"
   height="20"
   viewBox="0 0 5.2916665 5.2916668"
   version="1.1"
   id="svg857"
   inkscape:version="1.0.1 (3bc2e813f5, 2020-09-07)"
   sodipodi:docname="einzelsymbol_golfplatz.svg">
  <defs
     id="defs851" />
  <sodipodi:namedview
     id="base"
     pagecolor="#ffffff"
     bordercolor="#666666"
     borderopacity="1.0"
     inkscape:pageopacity="0.0"
     inkscape:pageshadow="2"
     inkscape:zoom="22.4"
     inkscape:cx="1.1462972"
     inkscape:cy="13.962118"
     inkscape:document-units="mm"
     inkscape:current-layer="layer1"
     inkscape:document-rotation="0"
     showgrid="false"
     units="px"
     inkscape:window-width="1920"
     inkscape:window-height="1057"
     inkscape:window-x="3832"
     inkscape:window-y="-8"
     inkscape:window-maximized="1" />
  <metadata
     id="metadata854">
    <rdf:RDF>
      <cc:Work
         rdf:about="">
        <dc:format>image/svg+xml</dc:format>
        <dc:type
           rdf:resource="http://purl.org/dc/dcmitype/StillImage" />
        <dc:title></dc:title>
      </cc:Work>
    </rdf:RDF>
  </metadata>
  <g
     inkscape:label="Ebene 1"
     inkscape:groupmode="layer"
     id="layer1">
    <g
       id="g1573"
       transform="translate(-2.1733631,-2.1733631)">
      <path
         style="fill:#767676;fill-opacity:1;fill-rule:nonzero;stroke:none;stroke-width:0.0198283"
         d="m 4.1648665,6.1410814 c -0.0727,0 -0.132187,-0.046266 -0.132187,-0.099142 0,-2.4520959 0,-2.4520959 0,-2.4520959 0,-0.052876 0.05948,-0.092532 0.132187,-0.092532 0.0727,0 0.132188,0.039657 0.132188,0.092532 0,2.4520959 0,2.4520959 0,2.4520959 0,0.052876 -0.05948,0.099142 -0.132188,0.099142 z"
         id="path1125" />
      <path
         style="fill:#767676;fill-opacity:1;fill-rule:nonzero;stroke:#767676;stroke-width:0.105751px;stroke-linecap:round;stroke-linejoin:round;stroke-miterlimit:10;stroke-dasharray:none;stroke-opacity:1"
         d="M 5.5528475,3.9930187 4.4755085,3.589844 v 0.812959 z"
         id="path1127" />
      <path
         style="fill:#767676;fill-opacity:1;fill-rule:nonzero;stroke:none;stroke-width:0.0198283"
         d="m 5.2025465,5.9361891 c 0,0.1123601 -0.09253,0.2048923 -0.20489,0.2048923 -0.112361,0 -0.204896,-0.092532 -0.204896,-0.2048923 0,-0.1123603 0.09253,-0.204892 0.204896,-0.204892 0.112358,0 0.20489,0.092532 0.20489,0.204892 z"
         id="path1129" />
    </g>
  </g>
</svg>
